<svg xmlns="http://www.w3.org/2000/svg" version="1.1" xmlns:xlink="http://www.w3.org/1999/xlink" xmlns:svgjs="http://svgjs.com/svgjs" width="500" height="600" preserveAspectRatio="none" viewBox="0 0 500 600">
    <g mask="url(&quot;#SvgjsMask1021&quot;)" fill="none">
        <rect width="500" height="600" x="0" y="0" fill="rgba(255, 109, 0, 0.26)"></rect>
        <path d="M73.15 62.5L138.11 100L138.11 175L73.15 212.5L8.2 175L8.2 100zM73.15 512.5L138.11 550L138.11 625L73.15 662.5L8.2 625L8.2 550zM332.97 512.5L397.92 550L397.92 625L332.97 662.5L268.01 625L268.01 550zM462.88 512.5L527.83 550L527.83 625L462.88 662.5L397.92 625L397.92 550z" stroke="rgba(255, 133, 0, 0.59)" stroke-width="2"></path>
        <path d="M65.65 62.5 a7.5 7.5 0 1 0 15 0 a7.5 7.5 0 1 0 -15 0zM130.61 100 a7.5 7.5 0 1 0 15 0 a7.5 7.5 0 1 0 -15 0zM130.61 175 a7.5 7.5 0 1 0 15 0 a7.5 7.5 0 1 0 -15 0zM65.65 212.5 a7.5 7.5 0 1 0 15 0 a7.5 7.5 0 1 0 -15 0zM0.7 175 a7.5 7.5 0 1 0 15 0 a7.5 7.5 0 1 0 -15 0zM0.7 100 a7.5 7.5 0 1 0 15 0 a7.5 7.5 0 1 0 -15 0zM65.65 512.5 a7.5 7.5 0 1 0 15 0 a7.5 7.5 0 1 0 -15 0zM130.61 550 a7.5 7.5 0 1 0 15 0 a7.5 7.5 0 1 0 -15 0zM130.61 625 a7.5 7.5 0 1 0 15 0 a7.5 7.5 0 1 0 -15 0zM65.65 662.5 a7.5 7.5 0 1 0 15 0 a7.5 7.5 0 1 0 -15 0zM0.7 625 a7.5 7.5 0 1 0 15 0 a7.5 7.5 0 1 0 -15 0zM0.7 550 a7.5 7.5 0 1 0 15 0 a7.5 7.5 0 1 0 -15 0zM325.47 512.5 a7.5 7.5 0 1 0 15 0 a7.5 7.5 0 1 0 -15 0zM390.42 550 a7.5 7.5 0 1 0 15 0 a7.5 7.5 0 1 0 -15 0zM390.42 625 a7.5 7.5 0 1 0 15 0 a7.5 7.5 0 1 0 -15 0zM325.47 662.5 a7.5 7.5 0 1 0 15 0 a7.5 7.5 0 1 0 -15 0zM260.51 625 a7.5 7.5 0 1 0 15 0 a7.5 7.5 0 1 0 -15 0zM260.51 550 a7.5 7.5 0 1 0 15 0 a7.5 7.5 0 1 0 -15 0zM455.38 512.5 a7.5 7.5 0 1 0 15 0 a7.5 7.5 0 1 0 -15 0zM520.33 550 a7.5 7.5 0 1 0 15 0 a7.5 7.5 0 1 0 -15 0zM520.33 625 a7.5 7.5 0 1 0 15 0 a7.5 7.5 0 1 0 -15 0zM455.38 662.5 a7.5 7.5 0 1 0 15 0 a7.5 7.5 0 1 0 -15 0z" fill="rgba(255, 133, 0, 0.59)"></path>
        <path d="M35.05 136.72L78.35 161.72L78.35 211.72L35.05 236.72L-8.25 211.72L-8.25 161.72zM78.35 361.72L121.66 386.72L121.66 436.72L78.35 461.72L35.05 436.72L35.05 386.72zM35.05 586.72L78.35 611.72L78.35 661.72L35.05 686.72L-8.25 661.72L-8.25 611.72zM164.96 61.72L208.26 86.72L208.26 136.72L164.96 161.72L121.66 136.72L121.66 86.72zM164.96 361.72L208.26 386.72L208.26 436.72L164.96 461.72L121.66 436.72L121.66 386.72zM164.96 511.72L208.26 536.72L208.26 586.72L164.96 611.72L121.66 586.72L121.66 536.72zM121.66 586.72L164.96 611.72L164.96 661.72L121.66 686.72L78.35 661.72L78.35 611.72zM208.26 -13.28L251.56 11.72L251.56 61.72L208.26 86.72L164.96 61.72L164.96 11.72zM208.26 136.72L251.56 161.72L251.56 211.72L208.26 236.72L164.96 211.72L164.96 161.72zM208.26 436.72L251.56 461.72L251.56 511.72L208.26 536.72L164.96 511.72L164.96 461.72zM208.26 586.72L251.56 611.72L251.56 661.72L208.26 686.72L164.96 661.72L164.96 611.72zM294.87 136.72L338.17 161.72L338.17 211.72L294.87 236.72L251.56 211.72L251.56 161.72zM424.77 61.72L468.08 86.72L468.08 136.72L424.77 161.72L381.47 136.72L381.47 86.72zM424.77 211.72L468.08 236.72L468.08 286.72L424.77 311.72L381.47 286.72L381.47 236.72zM424.77 361.72L468.08 386.72L468.08 436.72L424.77 461.72L381.47 436.72L381.47 386.72zM381.47 436.72L424.77 461.72L424.77 511.72L381.47 536.72L338.17 511.72L338.17 461.72zM424.77 511.72L468.08 536.72L468.08 586.72L424.77 611.72L381.47 586.72L381.47 536.72zM511.38 61.72L554.68 86.72L554.68 136.72L511.38 161.72L468.08 136.72L468.08 86.72zM511.38 361.72L554.68 386.72L554.68 436.72L511.38 461.72L468.08 436.72L468.08 386.72zM468.08 436.72L511.38 461.72L511.38 511.72L468.08 536.72L424.77 511.72L424.77 461.72zM468.08 586.72L511.38 611.72L511.38 661.72L468.08 686.72L424.77 661.72L424.77 611.72z" stroke="rgba(255, 158, 0, 0.61)" stroke-width="2"></path>
    </g>
    <defs>
        <mask id="SvgjsMask1021">
            <rect width="500" height="600" fill="#ffffff"></rect>
        </mask>
    </defs>
</svg>